<?xml version="1.0" standalone="no"?><!DOCTYPE svg PUBLIC "-//W3C//DTD SVG 1.1//EN" "http://www.w3.org/Graphics/SVG/1.1/DTD/svg11.dtd"><svg t="1554864473012" class="icon" style="" viewBox="0 0 1024 1024" version="1.1" xmlns="http://www.w3.org/2000/svg" p-id="1029" xmlns:xlink="http://www.w3.org/1999/xlink" width="200" height="200"><defs><style type="text/css"></style></defs><path d="M496.25 279.5000003h223.49999971V790.25000032h116.25000031c64.50000029-74.9999997 104.24999971-171.74999971 104.24999969-278.25000032 0-235.50000029-191.25-425.99999971-427.50000002-425.99999971s-427.50000004 190.5000003-427.49999999 425.99999971c0 106.49999971 38.99999968 204.00000029 104.25000058 278.25000032h116.24999944v-267.75000003h17.99999999v264.74999939h378v-492.74999997H482.00000029l14.24999971-14.99999941c-0.74999969 0.74999969 0 0 0 0z m-15.75000001 0l-5.2499997 4.49999999v-4.49999999h5.2499997z m-29.9999997 149.99999941c-2.24999999-4.50000001-2.99999971-9.74999971-3.00000058-14.99999943h-27c0 15.75 6.00000029 30.75000031 15.74999999 41.99999942-20.24999999 28.50000029-54.00000001 47.25-92.25 47.25000001-62.25000031 0-112.50000001-50.24999971-112.49999999-112.50000001 0-24.75 8.25000029-48.75000029 22.5-67.49999999-5.24999971 10.50000029-6.00000029 20.99999972-1.49999944 28.50000029 9 17.25000029 38.25 19.50000029 63.74999973 4.49999997 26.25000029-14.24999971 39.75000028-39.75000028 29.99999971-56.24999996-8.25000029-14.24999971-29.99999971-18-52.49999971-10.50000029 15.00000027-7.49999971 32.24999971-11.24999999 50.2499997-11.25000001 62.25000031 0 112.50000001 50.24999971 112.5 112.49999999 0.74999969 13.49999999-1.50000029 26.25000029-5.99999941 38.25000001z m-281.25 372.75000029h-3.75000024v-3.75000027c-64.50000029-78.00000031-103.49999998-177.74999999-103.50000006-286.49999973 0-247.50000002 201.75000028-448.49999971 450.00000001-448.49999971s449.99999999 200.99999971 449.99999999 448.49999971c0 108.74999971-38.99999968 208.50000029-103.49999995 286.49999973v3.75000027h-3.75000033c-82.50000029 96.75-205.49999971 157.49999999-342.74999971 157.5s-260.25000029-60.75000001-342.74999971-157.5z m29.99999973 0c78.00000031 83.25000001 189 135.74999969 312.74999998 135.74999971s234.74999971-51.74999999 312.74999998-135.74999971h-625.49999996z m144.7499997-379.50000029c16.49999971 0 30.75000031-13.49999999 30.75000027-30.74999942 0-16.49999971-13.49999999-30.75000031-30.75000027-30.75000028-16.49999971 0-30.75000031 13.49999999-30.74999944 30.75000028 0.74999969 16.49999971 14.24999971 30.75000031 30.74999944 30.74999942z m89.99999997-21.74999943c7.49999971 0 13.49999999-6.00000029 13.50000002-13.49999998s-6.00000029-13.49999999-13.50000002-13.50000001-13.49999999 6.00000029-13.49999998 13.50000001 6.00000029 13.49999999 13.49999998 13.49999998z" fill="#EBEBEB" p-id="1030"></path><path d="M494.74999971 466.25000028c10.50000029 0 20.24999999-8.25000029 21.00000058-18.75000057 0-0.74999969-0.74999969-1.50000029-0.75000058-2.25000001 0-3.75000029 2.99999971-7.49999971 7.50000058-7.49999971 3.75000029 0 7.49999971 2.99999971 7.49999971 7.49999971 0 19.50000029-15.75 35.25000028-35.25000029 35.25000029H487.99999971c-37.50000027 0-67.50000002-29.99999971-67.5-65.99999969h27c0 21.75000029 18 39.75000028 40.5 39.74999942 2.24999999 0 4.50000001 0 6.75-0.74999973v12.75000029z m-110.99999971 56.25000001h243.74999971v18h-243.74999971v-18z m0 48.74999942h243.74999971v17.99999999h-243.74999971v-17.99999999z m0 48.7500003h243.74999971v18h-243.74999971v-18z m0 48.75000028h122.24999971v17.99999999h-122.24999971v-17.99999999z m191.99999971-255.75000031c-8.25000029 0-15.00000027-6.75-14.99999942-15.00000026s6.75-15.00000027 14.99999942-14.99999944 15.00000027 6.75 15.00000029 14.99999944c0.74999969 8.25000029-6.00000029 15.00000027-15.00000029 15.00000026z m-450.74999973 191.25000002l103.50000001-103.49999999c8.25000029-8.25000029 21.75000029-8.25000029 29.99999973 0s8.25000029 21.75000029 0 29.9999997l-103.50000001 103.49999999c-8.25000029 8.25000029-21.75000029 8.25000029-29.99999973 0-9-8.25000029-9-21.75000029 0-29.9999997z m218.99999974-181.50000029c-16.49999971 0-30.75000031-13.49999999-30.74999944-30.74999942 0-16.49999971 13.49999999-30.75000031 30.74999944-30.75000031 16.49999971 0 30.75000031 13.49999999 30.75000027 30.75000031 0 16.49999971-13.49999999 30.75000031-30.75000027 30.74999942z m89.99999997-21.74999943c-7.49999971 0-13.49999999-6.00000029-13.49999998-13.50000001s6.00000029-13.49999999 13.49999998-13.49999998 13.49999999 6.00000029 13.50000002 13.49999998-6.00000029 13.49999999-13.50000002 13.50000001z m-1.4999994-143.99999998l20.25-20.25000002c11.9999997-11.9999997 30.75000031-11.9999997 43.49999971 0 11.9999997 11.9999997 11.9999997 30.75000031 0 43.49999973l-20.25 20.25-8.25000028-8.25000031 17.99999999-17.99999999c7.49999971-7.49999971 7.49999971-20.24999999 0-27.00000003s-20.24999999-7.49999971-27.7499997 0l-18.00000003 17.99999999-7.49999969-8.24999937z m29.25 5.24999969l8.24999942-8.25000028c2.24999999-2.24999999 6.00000029-2.24999999 8.25000029 0 2.24999999 2.24999999 2.24999999 6.00000029 0 8.25000028l-8.25000029 8.25000029c-2.24999999 2.24999999-6.00000029 2.24999999-8.24999942 0-2.99999971-1.50000029-2.99999971-6.00000029 0-8.25000029z m-48.75000025-20.24999999l17.99999995-18.74999973c2.24999999-2.24999999 6.00000029-2.24999999 8.2500003 0 2.24999999 2.24999999 2.24999999 6.00000029 0 8.24999944l-17.99999998 18.75000058c-2.24999999 2.24999999-6.00000029 2.24999999-8.25000027 0-2.99999971-2.24999999-2.99999971-6.00000029 0-8.25000029z" fill="#D8D8D8" p-id="1031"></path><path d="M343.9999997 565.25000031c-96.00000029 0-173.99999971-78.00000031-173.9999997-173.25000002 0-95.24999971 78.00000031-173.25 173.9999997-173.25 96.00000029 0 173.99999971 78.00000031 174.00000059 173.25 0 95.24999971-78.00000031 173.25-174.00000059 173.25000002z m0-42.00000029c72.74999971 0 132.00000029-59.24999971 132.0000003-131.24999973s-59.24999971-131.24999972-132.0000003-131.25000058c-72.74999971 0-132.00000029 59.24999971-131.99999939 131.25000058 0.74999969 72.74999971 60.00000029 131.24999972 131.99999939 131.2499997z" fill="#D8D8D8" p-id="1032"></path></svg>